<?xml version="1.0" encoding="UTF-8" standalone="no"?>
<!-- Created with Inkscape (http://www.inkscape.org/) -->

<svg
   xmlns:dc="http://purl.org/dc/elements/1.1/"
   xmlns:cc="http://creativecommons.org/ns#"
   xmlns:rdf="http://www.w3.org/1999/02/22-rdf-syntax-ns#"
   xmlns:svg="http://www.w3.org/2000/svg"
   xmlns="http://www.w3.org/2000/svg"
   xmlns:sodipodi="http://sodipodi.sourceforge.net/DTD/sodipodi-0.dtd"
   xmlns:inkscape="http://www.inkscape.org/namespaces/inkscape"
   width="40mm"
   height="10mm"
   viewBox="0 0 141.73228 35.43305"
   id="svg2"
   version="1.1"
   inkscape:version="0.91 r"
   sodipodi:docname="bacapikiranputih.svg">
  <defs
     id="defs4">
    <inkscape:perspective
       sodipodi:type="inkscape:persp3d"
       inkscape:vp_x="165.08849 : 718.83254 : 1"
       inkscape:vp_y="0 : 107.23658 : 0"
       inkscape:vp_z="968.6301 : 718.83254 : 1"
       inkscape:persp3d-origin="566.85928 : 700.02391 : 1"
       id="perspective3589" />
    <inkscape:perspective
       sodipodi:type="inkscape:persp3d"
       inkscape:vp_x="0 : 526.1808 : 1"
       inkscape:vp_y="0 : 999.99935 : 0"
       inkscape:vp_z="744.09448 : 526.1808 : 1"
       inkscape:persp3d-origin="372.04721 : 350.78716 : 1"
       id="perspective3559" />
    <filter
       inkscape:label="Crumpled Plastic"
       inkscape:menu="Textures"
       inkscape:menu-tooltip="Crumpled matte plastic, with melted edge"
       style="color-interpolation-filters:sRGB"
       id="filter3720">
      <feTurbulence
         numOctaves="2"
         seed="0"
         type="turbulence"
         baseFrequency="0.08"
         result="result91"
         id="feTurbulence3722" />
      <feDisplacementMap
         result="fbSourceGraphic"
         scale="10"
         yChannelSelector="G"
         xChannelSelector="R"
         in="SourceGraphic"
         in2="result91"
         id="feDisplacementMap3724" />
      <feGaussianBlur
         result="result0"
         in="fbSourceGraphic"
         stdDeviation="0.5"
         id="feGaussianBlur3726" />
      <feTurbulence
         baseFrequency="0.01"
         seed="488"
         numOctaves="8"
         result="result1"
         id="feTurbulence3728" />
      <feComposite
         result="result2"
         operator="in"
         in2="result1"
         in="result0"
         id="feComposite3730" />
      <feSpecularLighting
         surfaceScale="1.5"
         result="result4"
         specularConstant="1"
         specularExponent="30"
         in="result2"
         id="feSpecularLighting3732">
        <feDistantLight
           elevation="70"
           azimuth="235"
           id="feDistantLight3734" />
      </feSpecularLighting>
      <feComposite
         in2="result2"
         in="result4"
         operator="atop"
         result="result5"
         id="feComposite3736" />
      <feBlend
         mode="multiply"
         result="result6"
         in2="result5"
         id="feBlend3738" />
      <feBlend
         mode="screen"
         in="result6"
         in2="result6"
         id="feBlend3740" />
    </filter>
  </defs>
  <sodipodi:namedview
     id="base"
     pagecolor="#ffffff"
     bordercolor="#666666"
     borderopacity="1.0"
     inkscape:pageopacity="0.0"
     inkscape:pageshadow="2"
     inkscape:zoom="3.2796268"
     inkscape:cx="92.043317"
     inkscape:cy="20.993965"
     inkscape:document-units="px"
     inkscape:current-layer="layer2"
     showgrid="false"
     inkscape:window-width="870"
     inkscape:window-height="772"
     inkscape:window-x="0"
     inkscape:window-y="0"
     inkscape:window-maximized="0"
     inkscape:snap-midpoints="true"
     inkscape:snap-others="true"
     inkscape:object-paths="false"
     inkscape:snap-intersection-paths="false"
     inkscape:object-nodes="false"
     inkscape:snap-smooth-nodes="false"
     inkscape:snap-bbox="true"
     inkscape:snap-nodes="false" />
  <metadata
     id="metadata7">
    <rdf:RDF>
      <cc:Work
         rdf:about="">
        <dc:format>image/svg+xml</dc:format>
        <dc:type
           rdf:resource="http://purl.org/dc/dcmitype/StillImage" />
        <dc:title></dc:title>
      </cc:Work>
    </rdf:RDF>
  </metadata>
  <g
     inkscape:label="Layer 1"
     inkscape:groupmode="layer"
     id="layer1"
     transform="translate(0,-1016.9293)" />
  <g
     inkscape:groupmode="layer"
     id="layer2"
     inkscape:label="Layer 2"
     transform="translate(0,-1016.9293)">
    <ellipse
       style="fill:#000000"
       id="path3351"
       cx="5.4042344"
       cy="1034.1504"
       r="0.84343547" />
    <g
       id="g4242"
       style="fill:#ffffff">
      <path
         inkscape:connector-curvature="0"
         id="text5072"
         d="m 7.0425131,1023.9787 c -0.8707812,0 -1.7216261,0.018 -2.5528267,0.055 -0.8213056,0.024 -1.5239674,0.066 -2.1077869,0.1269 l 0,2.8354 c 0.8714158,-0.1471 1.754957,-0.2123 2.6385212,-0.2381 1.3094751,-0 2.6182487,0 3.927718,0.01 0.3235379,-0.01 0.646322,-0.013 0.9686721,-0.014 0.9670572,-0 1.9304522,0.032 2.8951302,0.134 0.0027,2e-4 0.0054,8e-4 0.008,10e-4 -0.270466,-0.5313 -0.622332,-0.9931 -1.057679,-1.3825 -0.54424,-0.4956 -1.21679,-0.8701 -2.0183073,-1.124 -0.7916195,-0.2659 -1.6921734,-0.3991 -2.7014896,-0.3991 z m 55.1869019,0.073 1.982325,3.7549 5.68326,-1.632 -4.733052,6.0672 4.427677,3.5698 -8.263547,-0.6192 -1.235223,5.1174 0,7.2069 2.92401,0 0,-9.4657 c 1.454602,-0.012 2.726084,-0.1998 3.814563,-0.5624 1.088476,-0.3748 1.993815,-0.8947 2.716167,-1.5596 0.722355,-0.6769 1.262014,-1.4745 1.618242,-2.3932 0.366126,-0.9309 0.5492,-1.9525 0.5492,-3.0647 0,-1.2209 -0.193112,-2.2366 -0.579025,-3.0466 -0.376021,-0.822 -0.905645,-1.4805 -1.588417,-1.9762 -0.68277,-0.5077 -1.493942,-0.8644 -2.433991,-1.07 -0.940049,-0.2176 -1.973969,-0.3266 -3.102027,-0.3266 l -1.780162,0 z m 20.4818,0 0,23.465 2.850152,0 0,-6.0204 c 0,-0.133 -0.0053,-0.2961 -0.01515,-0.4895 -0.0099,-0.2056 -0.01467,-0.3628 -0.01467,-0.4716 l 4.369445,5.3381 c 0.528566,-0.223 1.055651,-0.4488 1.577998,-0.6893 0.354483,-0.1504 0.713967,-0.288 1.074727,-0.4214 l -4.528523,-5.5332 6.115044,-6.6003 -3.502563,0 -5.135956,5.6033 c 0.0099,-0.2056 0.01515,-0.4296 0.01515,-0.6714 0.0099,-0.2539 0.01469,-0.4956 0.01469,-0.7253 0.0099,-0.2297 0.01467,-0.441 0.01467,-0.6344 0.0099,-0.1935 0.01515,-0.3325 0.01515,-0.4171 l 0,-11.7325 -2.850152,0 z m -5.966854,2.4846 c -0.494763,0 -0.914931,0.1632 -1.261265,0.4896 -0.336436,0.3264 -0.504694,0.7794 -0.504694,1.3597 0,0.6044 0.168258,1.0698 0.504694,1.3962 0.346334,0.3143 0.766502,0.4715 1.261265,0.4715 0.237487,0 0.465488,-0.042 0.683185,-0.1268 0.217694,-0.085 0.40555,-0.2055 0.563875,-0.3627 0.168219,-0.1692 0.301583,-0.3687 0.400535,-0.5984 0.09896,-0.2297 0.148662,-0.4897 0.148662,-0.7798 0,-0.2901 -0.04971,-0.5437 -0.148662,-0.7613 -0.09895,-0.2297 -0.232316,-0.4233 -0.400535,-0.5805 -0.158325,-0.1692 -0.346181,-0.296 -0.563875,-0.3806 -0.217697,-0.085 -0.445698,-0.1269 -0.683185,-0.1269 z m -73.5954771,4.3482 c -0.2556888,2e-4 -0.5112653,0 -0.7669844,0 l 0,16.3761 c 0.2869622,0.048 0.6330382,0.097 1.0387431,0.1453 0.4057053,0.048 0.826346,0.085 1.2617369,0.1089 0.4452863,0.036 0.8807453,0.06 1.3062409,0.072 0.4353916,0.024 0.8163577,0.036 1.1429014,0.036 1.2863827,0 2.3896113,-0.1749 3.3098702,-0.5255 0.930152,-0.3506 1.692089,-0.8405 2.285802,-1.4691 0.60361,-0.6286 1.043851,-1.378 1.320918,-2.2484 0.286963,-0.8704 0.430838,-1.8316 0.430838,-2.8833 0,-0.7253 -0.09895,-1.3843 -0.296851,-1.9767 -0.18801,-0.5923 -0.455213,-1.1117 -0.801546,-1.559 -0.336439,-0.4594 -0.737481,-0.8402 -1.202557,-1.1424 -0.455181,-0.3144 -0.94466,-0.5502 -1.469108,-0.7074 0.395811,-0.2297 0.761487,-0.5201 1.097925,-0.8706 0.336439,-0.3506 0.623716,-0.7492 0.8612,-1.1964 0.160421,-0.2901 0.295453,-0.5999 0.410006,-0.9256 -0.913273,-0.2835 -1.833382,-0.5331 -2.779609,-0.7003 -1.1074955,-0.2165 -2.2250261,-0.3756 -3.3524783,-0.4512 -1.2636615,-0.1016 -2.5300084,-0.076 -3.7970478,-0.085 z m 34.7818001,1.3999 c -0.900467,0 -1.756568,0.1691 -2.567978,0.5076 -0.808365,0.3372 -1.513242,0.8368 -2.115364,1.498 0.172854,0.1005 0.345917,0.2013 0.522213,0.2954 0.661834,0.3983 1.318264,0.8021 1.95297,1.2404 0.232629,-0.194 0.481884,-0.3506 0.753254,-0.4587 0.465076,-0.1935 0.950247,-0.2903 1.454905,-0.2903 0.712457,0 1.395046,0.1273 2.048133,0.3812 0.66298,0.2538 1.306369,0.6224 1.929769,1.1059 l 0,-3.0102 c -0.583818,-0.4472 -1.231989,-0.7676 -1.944447,-0.961 -0.702562,-0.2056 -1.38037,-0.3083 -2.033455,-0.3083 z m 12.111726,0 c -0.653085,0 -1.330893,0.091 -2.033455,0.2718 -0.692668,0.1813 -1.3112,0.4295 -1.855441,0.7438 l 0,2.7019 c 0.623403,-0.3143 1.251498,-0.5624 1.884794,-0.7437 0.643192,-0.1935 1.271763,-0.2903 1.885268,-0.2903 0.410365,0 0.764097,0.07 1.064308,0.2041 l 1.841711,-2.3606 c -0.177644,-0.085 -0.363925,-0.1595 -0.561034,-0.2187 -0.643193,-0.2056 -1.385054,-0.3083 -2.226151,-0.3083 z m 59.38638,0 c -0.32654,0 -0.62338,0.097 -0.89056,0.2903 -0.25727,0.1813 -0.49484,0.4167 -0.71253,0.7068 -0.2177,0.2781 -0.41081,0.5866 -0.57903,0.9251 -0.16822,0.3264 -0.32644,0.6404 -0.47487,0.9427 -0.0198,-0.2418 -0.0494,-0.4895 -0.089,-0.7433 -0.0396,-0.2539 -0.084,-0.4898 -0.13352,-0.7074 -0.0396,-0.2297 -0.0845,-0.4351 -0.13398,-0.6164 -0.0495,-0.1934 -0.0987,-0.3443 -0.14819,-0.4531 l -2.40464,0 c 0.0495,0.2176 0.0992,0.5198 0.14866,0.9067 0.0594,0.3747 0.10861,0.7914 0.14819,1.2508 0.0495,0.4594 0.0892,0.937 0.11884,1.4327 0.0297,0.4956 0.0445,0.9673 0.0445,1.4146 l 0,2.6026 c 0.18766,-0.063 0.3754,-0.1265 0.56625,-0.1833 0.76293,-0.2718 1.52582,-0.5394 2.28343,-0.8223 l 0,-0.2552 c 0,-0.4836 0.0349,-0.943 0.10416,-1.3782 0.0693,-0.4473 0.18303,-0.8341 0.34135,-1.1605 0.15833,-0.3384 0.36626,-0.6043 0.62353,-0.7977 0.26718,-0.2055 0.5884,-0.3087 0.96442,-0.3087 0.33643,0 0.69302,0.025 1.06904,0.073 0.37602,0.036 0.73213,0.1026 1.06857,0.1993 l 0,-2.8288 c -0.31665,-0.1451 -0.63356,-0.2601 -0.95021,-0.3447 -0.30675,-0.097 -0.62797,-0.1449 -0.96441,-0.1449 z m 9.42491,0 c -0.65308,0 -1.33089,0.091 -2.03345,0.2718 -0.69267,0.1813 -1.3112,0.4295 -1.85544,0.7438 l 0,2.7019 c 0.6234,-0.3143 1.25197,-0.5624 1.88527,-0.7437 0.64319,-0.1935 1.27128,-0.2903 1.88479,-0.2903 0.47273,0 0.86985,0.093 1.1964,0.2718 0.25103,-0.051 0.50191,-0.099 0.75183,-0.169 0.4228,-0.1576 0.88289,-0.1596 1.31808,-0.251 0.40367,-0.085 0.77895,-0.2275 1.1893,-0.2982 0.0444,-0.01 0.0886,-0.014 0.13304,-0.021 -0.17501,-0.3499 -0.38279,-0.6545 -0.62542,-0.9105 -0.43539,-0.4715 -0.97458,-0.8041 -1.61777,-0.9975 -0.64319,-0.2055 -1.38553,-0.3083 -2.22663,-0.3083 z m 16.25297,0 c -0.4057,0 -0.79145,0.055 -1.15757,0.1634 -0.35623,0.097 -0.69275,0.2294 -1.00939,0.3986 -0.30676,0.1693 -0.58878,0.3629 -0.84606,0.5805 -0.10454,0.088 -0.20194,0.1803 -0.29827,0.2727 0.88959,-0.01 1.7792,-0.018 2.66883,-0.026 0.99829,-7e-4 1.99674,-0.01 2.99502,0 0.30793,0 0.6158,-0 0.9237,-0 -0.7238,-0.9234 -1.81506,-1.3867 -3.27626,-1.3867 z m -59.816739,0.3447 0,14.8876 2.849679,0 0,-14.8876 -2.849679,0 z m 21.611446,0 0,10.4599 c 0.629516,-0.2682 1.261277,-0.5298 1.913674,-0.7429 0.312751,-0.1119 0.624714,-0.228 0.936003,-0.3456 l 0,-9.3714 -2.849677,0 z m 31.644743,0 0,1.1439 c 0.66008,-0.037 1.32161,-0.053 1.98232,-0.061 0.28106,-0 0.56215,-0 0.84321,-0.01 l -0.0649,-1.0747 -2.76067,0 z m -123.2402104,1.2622 a 4.0839969,4.4157521 0 0 0 0.340882,0.152 l -0.340882,0 0,-0.152 z m 13.2399514,0.1899 0,1.9207 c 0.6234,-0.3143 1.251498,-0.5624 1.884793,-0.7437 0.189364,-0.057 0.377059,-0.1028 0.563875,-0.143 -0.813053,-0.3517 -1.632355,-0.6897 -2.448668,-1.034 z m 35.869782,0.2372 -3.26584,0.9374 c 0.254496,0.1455 0.466038,0.3437 0.629211,0.6008 0.376019,0.5803 0.563878,1.4205 0.563878,2.5206 -0.346334,-0.036 -0.66803,-0.06 -0.964886,-0.072 -0.286962,-0.024 -0.578548,-0.036 -0.875405,-0.036 -1.988945,0 -3.493218,0.4354 -4.512426,1.3058 -0.489719,0.4165 -0.859518,0.9235 -1.111653,1.5193 0.407999,0.2444 0.817627,0.4867 1.239958,0.7097 0.94376,0.5305 1.935865,0.9869 2.935374,1.4094 1.104062,0.4099 2.056304,1.1031 3.094449,1.6349 1.134902,0.5936 2.312532,1.0916 3.490727,1.595 0.510684,0.1999 1.026015,0.3879 1.54249,0.5733 l 0,-1.9108 c -0.217694,0.061 -0.410333,0.1027 -0.578552,0.1269 -0.16822,0.012 -0.351294,0.018 -0.549198,0.018 -0.197904,0 -0.391016,-0.1027 -0.579025,-0.3082 -0.178115,-0.2055 -0.267024,-0.5259 -0.267024,-0.9611 l 0,-5.7482 c 0,-1.1121 -0.113766,-2.0492 -0.341357,-2.8108 -0.117954,-0.4127 -0.268871,-0.7792 -0.450721,-1.1031 z m 85.035857,2.2574 -1.78916,1.2712 c -0.14293,-8e-4 -0.28553,-0 -0.42847,-0 -0.18906,-9e-4 -0.37811,5e-4 -0.56719,5e-4 0.008,0.1483 0.0133,0.3001 0.0133,0.4597 l 0,9.2119 2.86483,0 0,-9.4296 c 0,-0.5423 -0.0335,-1.043 -0.0933,-1.5113 z m -114.91085,0.1406 c 0.128618,0.4656 0.194586,1.0173 0.194586,1.6608 -0.346334,-0.036 -0.668025,-0.06 -0.964884,-0.072 -0.286961,-0.024 -0.57902,-0.036 -0.875879,-0.036 -1.988945,0 -3.492741,0.4354 -4.511952,1.3058 -1.009314,0.8583 -1.514083,2.0976 -1.514083,3.7175 0,0.6528 0.08413,1.2572 0.252346,1.8133 0.178117,0.544 0.435282,1.0212 0.77172,1.4322 0.346334,0.411 0.77701,0.7314 1.291563,0.9611 0.524448,0.2297 1.132945,0.3447 1.825613,0.3447 0.890571,0 1.657289,-0.1814 2.300481,-0.544 0.64319,-0.3627 1.20245,-0.8099 1.677423,-1.3418 0.07916,0.2902 0.18289,0.5501 0.311527,0.7798 0.138534,0.2297 0.30679,0.4292 0.504694,0.5984 0.197907,0.1572 0.435474,0.2781 0.71254,0.3627 0.277067,0.097 0.59876,0.1449 0.964886,0.1449 0.425496,0 0.816025,-0.055 1.172253,-0.1634 0.366126,-0.1088 0.673001,-0.2719 0.920383,-0.4895 l 0,-2.0851 c -0.217697,0.061 -0.410333,0.1027 -0.578553,0.1269 -0.168219,0.012 -0.351296,0.018 -0.5492,0.018 -0.197907,0 -0.391014,-0.1027 -0.579025,-0.3082 -0.178115,-0.2055 -0.267024,-0.5259 -0.267024,-0.9611 l 0,-5.5739 c -0.817564,-0.4851 -1.623197,-0.9941 -2.484651,-1.4028 -0.190341,-0.098 -0.382784,-0.1926 -0.574764,-0.2874 z m 104.00547,1.1145 0,9.6858 2.85015,0 0,-9.6787 c -0.92828,0 -1.85659,-0 -2.78482,-0.01 -0.0218,-3e-4 -0.0436,-3e-4 -0.0653,-5e-4 z m -4.53658,0.044 c -0.95746,0.047 -1.91411,0.117 -2.85962,0.2736 0.002,0.076 0.005,0.1498 0.005,0.2282 -0.32478,-0.034 -0.62584,-0.056 -0.90713,-0.069 -0.95241,0.1676 -1.90734,0.3211 -2.85394,0.5194 -0.75762,0.191 -1.52722,0.3245 -2.2858,0.5113 -0.10577,0.075 -0.20885,0.1525 -0.30584,0.2353 -1.00932,0.8583 -1.51409,2.0976 -1.51409,3.7175 0,0.6528 0.0841,1.2572 0.25235,1.8133 0.17811,0.544 0.43528,1.0212 0.77172,1.4322 0.34633,0.411 0.77654,0.7314 1.29109,0.9611 0.52445,0.2297 1.13342,0.3447 1.82608,0.3447 0.89058,0 1.65729,-0.1814 2.30048,-0.544 0.6432,-0.3627 1.20245,-0.8099 1.67743,-1.3418 0.0792,0.2902 0.18289,0.5501 0.31153,0.7798 0.13853,0.2297 0.30679,0.4292 0.50469,0.5984 0.19791,0.1572 0.43547,0.2781 0.71254,0.3627 0.27707,0.097 0.59829,0.1449 0.96441,0.1449 0.4255,0 0.8165,-0.055 1.17273,-0.1634 0.36612,-0.1088 0.673,-0.2719 0.92038,-0.4895 l 0,-2.0851 c -0.2177,0.061 -0.4108,0.1027 -0.57902,0.1269 -0.16822,0.012 -0.3513,0.018 -0.5492,0.018 -0.19791,0 -0.39055,-0.1027 -0.57856,-0.3082 -0.17811,-0.2055 -0.26749,-0.5259 -0.26749,-0.9611 l 0,-5.7482 c 0,-0.1239 -0.007,-0.2374 -0.009,-0.3569 z m -113.077183,0.463 c 0.384219,0.5751 0.577605,1.3305 0.577605,2.2692 0,0.035 -0.0028,0.067 -0.0033,0.1014 a 4.0839969,5.0061898 0 0 0 -0.574292,-2.3706 z m 108.589383,2.2692 c 0.30675,0 0.59881,0.01 0.87587,0.018 0.27707,0.012 0.52946,0.03 0.75705,0.054 l 0,2.9013 c -0.44529,0.5077 -0.95531,0.9126 -1.52924,1.2148 -0.57392,0.3022 -1.13749,0.4536 -1.69162,0.4536 -0.54424,0 -0.97014,-0.1936 -1.27689,-0.5805 -0.29686,-0.3868 -0.44504,-0.8885 -0.44504,-1.505 0,-0.3264 0.0492,-0.6405 0.14819,-0.9427 0.099,-0.3022 0.27246,-0.5744 0.51984,-0.8162 0.24738,-0.2418 0.58342,-0.4349 1.00892,-0.58 0.42549,-0.145 0.96994,-0.2178 1.63292,-0.2178 z m -88.248197,0.056 c 0.0333,1.0145 0.179246,1.9328 0.437938,2.7545 0.306752,0.9429 0.72692,1.7468 1.261263,2.4117 0.534345,0.6528 1.172951,1.1545 1.915093,1.5051 0.75204,0.3385 1.573248,0.5076 2.463822,0.5076 0.959838,0 1.810682,-0.1268 2.552827,-0.3807 0.649161,-0.2326 1.242136,-0.5532 1.777793,-0.9616 -0.557126,-0.2562 -1.111145,-0.5191 -1.651856,-0.8067 -0.423719,-0.223 -0.827908,-0.476 -1.23333,-0.7277 -0.369816,0.068 -0.762172,0.1023 -1.178411,0.1023 -0.445286,0 -0.880744,-0.091 -1.30624,-0.2723 -0.415601,-0.1813 -0.781751,-0.4653 -1.098398,-0.8522 -0.316649,-0.3989 -0.573814,-0.9006 -0.77172,-1.5051 -0.008,-0.026 -0.01316,-0.056 -0.02082,-0.082 -0.6613,-0.3348 -1.329106,-0.6577 -1.970015,-1.0298 -0.385727,-0.2322 -0.782855,-0.4458 -1.177936,-0.6628 z m 75.898797,0.7149 c -0.31668,0.1055 -0.63171,0.2149 -0.94263,0.3361 -0.6372,0.2479 -1.2725,0.4999 -1.90705,0.7538 l 0,5.0479 2.84968,0 0,-6.1378 z m -7.421286,2.808 c -0.190174,0.066 -0.379815,0.1337 -0.57003,0.1993 -0.768954,0.2657 -1.522383,0.5688 -2.279647,0.8636 l 0,2.2669 2.849677,0 0,-3.3298 z m -5.842811,2.2304 c -0.258367,0.095 -0.517845,0.1862 -0.780241,0.2708 -0.646603,0.2448 -1.284121,0.5131 -1.922196,0.7793 l 0.04024,0.049 3.562216,0 -0.900023,-1.0994 z"
         style="font-style:normal;font-weight:normal;font-size:138.60752869px;line-height:125%;font-family:sans-serif;letter-spacing:0px;word-spacing:0px;fill:#ffffff;fill-opacity:1;stroke:none;stroke-width:1px;stroke-linecap:butt;stroke-linejoin:miter;stroke-opacity:1" />
      <path
         inkscape:connector-curvature="0"
         id="path5230"
         d="m 107.24789,1021.0679 c -11.666051,0 -18.999912,6.4507 -18.999912,6.4507 17.613872,8.2677 20.275742,-3.3617 31.998882,-3.8259 -4.74028,-1.9097 -9.11029,-2.6254 -12.99897,-2.6248 z m -9.672055,3.37 a 3.6899191,2.8992222 2.6707761 0 1 0.368342,0 3.6899191,2.8992222 2.6707761 0 1 3.551323,3.0679 3.6899191,2.8992222 2.6707761 0 1 -0.45308,1.2755 c -1.935087,0.2545 -4.122615,0.1245 -6.757989,-0.6681 a 3.6899191,2.8992222 2.6707761 0 1 -0.160973,-0.9511 3.6899191,2.8992222 2.6707761 0 1 3.452377,-2.7271 z"
         style="fill:#ffffff;fill-rule:evenodd;stroke:none;stroke-width:0.165;stroke-linecap:butt;stroke-linejoin:miter;stroke-opacity:1;stroke-miterlimit:4;stroke-dasharray:none" />
      <ellipse
         ry="1.8430626"
         rx="1.6243942"
         cy="1039.6794"
         cx="11.776857"
         id="path3351-4"
         style="fill:#ffffff" />
    </g>
  </g>
</svg>
